<svg width="256" height="256" viewBox="0 0 256 256" fill="none" xmlns="http://www.w3.org/2000/svg">
<path d="M127.857 1.4066C79.03 1.4066 39.4456 40.9883 39.4456 89.8176C39.4456 134.75 76.8804 197.331 117.302 249.167C122.647 256.021 133.066 256.021 138.414 249.167C178.836 197.331 216.27 134.752 216.27 89.8176C216.268 40.9883 176.683 1.4066 127.857 1.4066Z" fill="#E75132"/>
<path d="M127.857 148.974C122.189 148.974 116.709 148.179 111.519 146.695C101.895 143.944 93.2739 138.821 86.322 132.004C75.3489 121.242 68.5431 106.245 68.5431 89.6631C68.5431 56.9041 95.0976 30.3496 127.857 30.3496C160.616 30.3496 187.17 56.9041 187.17 89.6631C187.17 122.422 160.616 148.974 127.857 148.974Z" fill="#EDF2F5"/>
<path d="M144.678 98.0337L141.425 88.2587H133.626V92.1124H138.652L139.054 93.3189L130.42 99.6904V67.6213L137.473 63.8535V60L99 80.5518V84.4051L101.565 83.035V119.728H130.42V104.477L140.332 97.1612L141.026 99.2448C134.085 102.893 132.639 112.677 138.807 118.115C145.459 123.98 156.016 120.428 157.765 111.736C159.38 103.711 152.375 96.8177 144.678 98.0337ZM153.993 110.975C152.828 116.769 145.789 119.138 141.355 115.228C137.417 111.756 138.14 105.634 142.27 102.984L144.091 108.455C143.691 109.414 143.866 110.597 144.752 111.378C146.23 112.681 148.576 111.892 148.965 109.96C149.196 108.812 148.63 107.771 147.743 107.245L145.92 101.765C150.786 101.421 155.024 105.852 153.993 110.975Z" fill="#1E1E1E"/>
</svg>
