<?xml version="1.0" standalone="no"?>
<!DOCTYPE svg PUBLIC "-//W3C//DTD SVG 20010904//EN"
 "http://www.w3.org/TR/2001/REC-SVG-20010904/DTD/svg10.dtd">
<svg version="1.0" xmlns="http://www.w3.org/2000/svg"
 width="512.000000pt" height="512.000000pt" viewBox="0 0 512.000000 512.000000"
 preserveAspectRatio="xMidYMid meet">

<g transform="translate(0.000000,512.000000) scale(0.100000,-0.100000)"
fill="#000000" stroke="none">
<path d="M2030 2995 l0 -885 195 0 195 0 0 245 0 245 149 0 c554 0 798 135
858 475 18 107 13 278 -11 370 -40 150 -143 277 -276 341 -154 75 -312 93
-797 94 l-313 0 0 -885z m781 541 c122 -26 181 -71 214 -165 31 -88 13 -226
-40 -317 -21 -36 -39 -52 -84 -72 -54 -26 -64 -27 -263 -30 l-208 -4 0 301 0
301 158 0 c96 0 183 -6 223 -14z"/>
</g>
</svg>
